<svg width="24" height="24" viewBox="0 0 24 24" fill="none" xmlns="http://www.w3.org/2000/svg">
<path d="M19.2001 7.19998H4.20009V6.59998L17.4001 5.54398V6.59998H19.2001V4.79998C19.2001 3.47998 18.1309 2.55358 16.8253 2.73958L4.77609 4.46038C3.46929 4.64758 2.40009 5.87998 2.40009 7.19998V19.2C2.40009 19.8365 2.65294 20.447 3.10303 20.897C3.55312 21.3471 4.16357 21.6 4.80009 21.6H19.2001C19.8366 21.6 20.4471 21.3471 20.8971 20.897C21.3472 20.447 21.6001 19.8365 21.6001 19.2V9.59998C21.6001 8.96346 21.3472 8.35301 20.8971 7.90293C20.4471 7.45284 19.8366 7.19998 19.2001 7.19998ZM17.4001 15.6072C17.1636 15.6071 16.9295 15.5605 16.7111 15.4699C16.4926 15.3793 16.2942 15.2466 16.127 15.0794C15.9599 14.9121 15.8273 14.7136 15.7369 14.4951C15.6465 14.2766 15.6 14.0424 15.6001 13.806C15.6002 13.5695 15.6468 13.3354 15.7374 13.117C15.8279 12.8985 15.9606 12.7001 16.1279 12.5329C16.2951 12.3658 16.4937 12.2332 16.7122 12.1428C16.9307 12.0524 17.1648 12.0059 17.4013 12.006C17.8788 12.0061 18.3368 12.196 18.6743 12.5338C19.0119 12.8716 19.2014 13.3296 19.2013 13.8072C19.2011 14.2847 19.0113 14.7427 18.6735 15.0802C18.3357 15.4178 17.8776 15.6073 17.4001 15.6072Z" fill="black"/>
</svg>
