<svg width="24" height="24" viewBox="0 0 24 24" fill="none" xmlns="http://www.w3.org/2000/svg">
<path d="M17.6249 7.5H12.7499V14.6892L15.2198 12.2198C15.3616 12.0851 15.5504 12.0111 15.746 12.0136C15.9415 12.0161 16.1284 12.0949 16.2667 12.2332C16.405 12.3715 16.4838 12.5584 16.4863 12.754C16.4888 12.9495 16.4148 13.1384 16.2801 13.2802L12.5301 17.0302C12.3895 17.1707 12.1988 17.2497 11.9999 17.2497C11.8011 17.2497 11.6104 17.1707 11.4698 17.0302L7.71978 13.2802C7.58507 13.1384 7.51107 12.9495 7.51358 12.754C7.51608 12.5584 7.59489 12.3715 7.73319 12.2332C7.87149 12.0949 8.05834 12.0161 8.25391 12.0136C8.44949 12.0111 8.6383 12.0851 8.7801 12.2198L11.2499 14.6892V7.5H6.37494C5.67897 7.50074 5.01173 7.77754 4.51961 8.26967C4.02748 8.76179 3.75068 9.42904 3.74994 10.125V19.875C3.75068 20.571 4.02748 21.2382 4.51961 21.7303C5.01173 22.2225 5.67897 22.4993 6.37494 22.5H17.6249C18.3209 22.4993 18.9882 22.2225 19.4803 21.7303C19.9724 21.2382 20.2492 20.571 20.2499 19.875V10.125C20.2492 9.42904 19.9724 8.76179 19.4803 8.26967C18.9882 7.77754 18.3209 7.50074 17.6249 7.5ZM12.7499 2.25C12.7499 2.05109 12.6709 1.86032 12.5303 1.71967C12.3896 1.57902 12.1989 1.5 11.9999 1.5C11.801 1.5 11.6103 1.57902 11.4696 1.71967C11.329 1.86032 11.2499 2.05109 11.2499 2.25V7.5H12.7499V2.25Z" fill="#131313"/>
</svg>
